<svg id="レイヤー_1" data-name="レイヤー 1" xmlns="http://www.w3.org/2000/svg" viewBox="0 0 500 500"><defs><style>.cls-1{fill:#fff;}.cls-2{fill:#e5446d;}</style></defs><rect class="cls-1" width="500" height="500"/><path d="M60.51,255.25a5.65,5.65,0,0,1,3.91-2,5.07,5.07,0,0,1,3.92.66,7.7,7.7,0,0,1,2.94,2.61,5.38,5.38,0,0,1,.32,4.57A11.94,11.94,0,0,1,69,266a45.66,45.66,0,0,1-3.59,3.91,25.93,25.93,0,0,1-9.46,6.53,28.24,28.24,0,0,1-10.45,2,22.23,22.23,0,0,1-10.12-2.61,27,27,0,0,1-9.14-7.18,30.84,30.84,0,0,1-3.92-5.88,38.5,38.5,0,0,1-2.61-6.53,36.59,36.59,0,0,1-1.3-10.44A41.13,41.13,0,0,1,20,235c2-3.26,3.26-6.52,5.22-9.79a40.84,40.84,0,0,1,7.18-7.83A48.72,48.72,0,0,1,39,213.47a42.93,42.93,0,0,1,6.86-3.26c1.3-.66,2.93-1,4.24-1.64a18.64,18.64,0,0,1,4.57-1.3,18.43,18.43,0,0,1,4.24-.33,11.53,11.53,0,0,1,4.57,1,13.5,13.5,0,0,1,2.94,1.63,21.54,21.54,0,0,1,2.94,2.61,17.71,17.71,0,0,1,2.28,2.94,13.55,13.55,0,0,1,1.31,3.27,4.46,4.46,0,0,1,0,2.93c-.33,1-.33,2-.65,2.62a5.56,5.56,0,0,1-2,2,3.67,3.67,0,0,1-2.61,1,5.06,5.06,0,0,1-3.92-.65,7.78,7.78,0,0,1-2.29-2.28,15.41,15.41,0,0,1-1.3-2.29A5.81,5.81,0,0,0,57.89,220h-1.3a67.65,67.65,0,0,0-7.51,2.61c-2.28,1.31-4.57,2.61-6.86,4.24a30.32,30.32,0,0,0-5.54,5.55,24.55,24.55,0,0,0-3.6,7.18,23.62,23.62,0,0,0-1,9.47,22.4,22.4,0,0,0,2.61,9.14,11.32,11.32,0,0,0,3.59,4.24,9,9,0,0,0,4.89,2.62c2,.32,3.6,1,5.23.65a10.22,10.22,0,0,0,5.22-2,38.71,38.71,0,0,0,3.92-3.59C58.55,258.19,59.53,256.89,60.51,255.25Z"/><path d="M91.19,276.47a5.88,5.88,0,0,1-4.57,1.31,5.76,5.76,0,0,1-4.24-2,6.41,6.41,0,0,1-1.64-4.9V211.18a5.77,5.77,0,0,1,2-4.24,8.71,8.71,0,0,1,4.57-2.28,7.5,7.5,0,0,1,4.57.65c1.31,1,2,2.28,2,4.57.33,3.59.33,7.51.33,11.1v10.77a21.46,21.46,0,0,1,8.49-3.59,18.68,18.68,0,0,1,8.48,0,18.44,18.44,0,0,1,7.51,3.92,19,19,0,0,1,5.55,8.16,28.22,28.22,0,0,1,2,7.51,58.89,58.89,0,0,1,.32,7.83v15.67a6.54,6.54,0,0,1-1.3,4.24,4.59,4.59,0,0,1-2.94,2.61,16.16,16.16,0,0,1-3.92.66,6.23,6.23,0,0,1-3.59-2.29,12.45,12.45,0,0,1-2-5.22,38.24,38.24,0,0,1-.32-6.2c0-2.29.32-4.57.32-6.86a21.63,21.63,0,0,0,0-6.53,15.63,15.63,0,0,0-1.3-5.87,8.74,8.74,0,0,0-3.92-4.57,8.09,8.09,0,0,0-3.92.32,10.2,10.2,0,0,0-3.26,1.64,9.82,9.82,0,0,0-2.61,2.61c-1,1-1.63,2-2.61,2.93-.33.33-.33.66-.66,1l-1,1v20.57A4.86,4.86,0,0,1,91.19,276.47Z"/><path d="M133.63,248.4c.65-2,1.3-4.25,2-6.2a52.36,52.36,0,0,1,3.27-5.88,21.08,21.08,0,0,1,4.24-4.9,18.84,18.84,0,0,1,5.23-3.59,22.2,22.2,0,0,1,10.12-2.61,23.34,23.34,0,0,1,9.46,2,19.2,19.2,0,0,1,7.51,6.2,20.22,20.22,0,0,1,3.92,9.8A61.08,61.08,0,0,1,180,250a49.74,49.74,0,0,1-.65,6.86A33.64,33.64,0,0,1,175.08,267a38.66,38.66,0,0,1-7.83,8.49,23.65,23.65,0,0,1-10.12,4.57c-3.59.65-7.18,0-11.1-1.63a20.81,20.81,0,0,1-4.57-2.61,19.07,19.07,0,0,1-3.59-3.59,19.3,19.3,0,0,1-2.94-4.9,27.93,27.93,0,0,1-1.63-5.55,19.17,19.17,0,0,1-.65-6.2,35.63,35.63,0,0,1,.65-5.88Zm12.73,2.28C146,252,146,253,145.7,254v3.26a19,19,0,0,0,1.31,4.57,8.89,8.89,0,0,0,2.61,3.27,7,7,0,0,0,3.92,1.3,8.92,8.92,0,0,0,4.57-1.3,22.47,22.47,0,0,0,5.55-5.55,19.08,19.08,0,0,0,2.94-8.16,15.41,15.41,0,0,0-1-7.84,8.83,8.83,0,0,0-5.55-5.22,11,11,0,0,0-4.9,1,11.73,11.73,0,0,0-3.92,2.61,20.15,20.15,0,0,0-2.93,3.92Z"/><path d="M216.21,260.8a8.87,8.87,0,0,1,5.23-1.63,5.58,5.58,0,0,1,5.55,5.55,8.81,8.81,0,0,1-1.64,5.22,10.26,10.26,0,0,1-3.26,3.27,18.1,18.1,0,0,1-4.24,2.28,26.15,26.15,0,0,1-9.8,2,22.34,22.34,0,0,1-9.14-2.28,21.29,21.29,0,0,1-7.18-5.88,27.57,27.57,0,0,1-4.24-8.81c-1.31-6.53-1.31-12.73,1-18.61a21.41,21.41,0,0,1,2.94-6.2c1.3-2,2.61-3.92,3.91-5.55a21.37,21.37,0,0,1,5.23-4.25,19.71,19.71,0,0,1,6.52-2.61,19.93,19.93,0,0,1,6.21,0,26.09,26.09,0,0,1,7.18,2,39.2,39.2,0,0,1,6.2,3.59,9.32,9.32,0,0,1,2.94,5.55,10,10,0,0,1-.33,3.27,4.34,4.34,0,0,1-2,2.28,6.62,6.62,0,0,1-2.61,1.31,5.63,5.63,0,0,1-3.26,0,12.65,12.65,0,0,1-2.94-1.31c-.65-.33-1.63-1.3-2.94-2.28-.65,0-1-.33-1.63-.66a3,3,0,0,0-1.63-.32l-3.27-.33c-.65.33-1,.65-1.3.65-.33.33-1,.33-1.31.66a26,26,0,0,0-5.55,8.16c-1.3,2.93-1.3,6.2-1,9.79a14,14,0,0,0,2,5.55,7.68,7.68,0,0,0,3.59,2.94,5.59,5.59,0,0,0,4.57,0,9.9,9.9,0,0,0,4.9-2.94Z"/><path d="M232.54,248.4c.65-2,1.3-4.25,2-6.2a52.36,52.36,0,0,1,3.27-5.88,20.84,20.84,0,0,1,4.24-4.9,18.69,18.69,0,0,1,5.23-3.59,22.19,22.19,0,0,1,10.11-2.61,23.35,23.35,0,0,1,9.47,2,19.2,19.2,0,0,1,7.51,6.2,22.19,22.19,0,0,1,3.92,9.8,61.08,61.08,0,0,1,.65,6.85,49.74,49.74,0,0,1-.65,6.86A33.64,33.64,0,0,1,274,267a38.66,38.66,0,0,1-7.83,8.49A23.65,23.65,0,0,1,256,280.06c-3.59.65-7.18,0-11.1-1.63a20.81,20.81,0,0,1-4.57-2.61,18.78,18.78,0,0,1-3.59-3.59,19.3,19.3,0,0,1-2.94-4.9,27.93,27.93,0,0,1-1.63-5.55,19.17,19.17,0,0,1-.65-6.2,35.63,35.63,0,0,1,.65-5.88Zm12.73,2.28c-.33,1.31-.33,2.29-.66,3.27v3.26a19,19,0,0,0,1.31,4.57,8.89,8.89,0,0,0,2.61,3.27,7,7,0,0,0,3.92,1.3,8.92,8.92,0,0,0,4.57-1.3,22.47,22.47,0,0,0,5.55-5.55,17.68,17.68,0,0,0,2.94-8.16,15.41,15.41,0,0,0-1-7.84,8.83,8.83,0,0,0-5.55-5.22,11,11,0,0,0-4.9,1,11.73,11.73,0,0,0-3.92,2.61,19.75,19.75,0,0,0-2.93,3.92Q246.24,248.24,245.27,250.68Z"/><path d="M321.65,226.53a9.18,9.18,0,0,1,3.27-2.94,8,8,0,0,1,3.91-.33,6.8,6.8,0,0,1,3.27,2,5.41,5.41,0,0,1,1.63,3.92,17.31,17.31,0,0,1-.65,5.22,57.49,57.49,0,0,1-2.29,6.86,58.13,58.13,0,0,0-2.61,6.85,27,27,0,0,1-2.28,5.22c-2.62,5.55-5.23,10.78-8.16,16s-5.88,10.45-8.82,15.34c-.33.66-1,1.63-1.63,2.94a17.53,17.53,0,0,0-1.63,3.59c-.33,1.31-1.31,2.29-2,3.59a7.14,7.14,0,0,1-2,2.29,8.2,8.2,0,0,1-3.92,2.28,4.53,4.53,0,0,1-3.59-.65,9.82,9.82,0,0,1-2.61-2.61,6.85,6.85,0,0,1-.65-4.57,5.12,5.12,0,0,1,1-2.61c.65-1,1-2.29,1.63-3.27s1.3-2.28,2-3.26,1.3-2,1.63-2.61c1.31-2.29,2.94-4.9,4.24-7.19s2.61-4.89,3.92-7.18A68.2,68.2,0,0,1,292.93,252a56.77,56.77,0,0,1-8.16-16c-.33-1-.66-2-1-2.93-.66-.66-.66-1.64-.66-2.94a5.55,5.55,0,0,1,1-3.27,14.5,14.5,0,0,1,2-2.28,5.29,5.29,0,0,1,2.94-1,11.79,11.79,0,0,1,3.26.65,14.1,14.1,0,0,1,2.29,2,11.46,11.46,0,0,1,1.3,2.94c.33,1,.66,2,1,3.26.33,1,.66,2,1,2.94a46,46,0,0,0,13.06,18.28c2-4.24,3.92-8.81,5.55-13.06s3.26-8.81,4.57-13.38Z"/><path d="M336,248.4c.65-2,1.3-4.25,2-6.2a52.36,52.36,0,0,1,3.27-5.88,20.84,20.84,0,0,1,4.24-4.9,18.79,18.79,0,0,1,5.22-3.59,22.27,22.27,0,0,1,10.12-2.61,23.35,23.35,0,0,1,9.47,2,19.2,19.2,0,0,1,7.51,6.2,22.19,22.19,0,0,1,3.92,9.8,61.08,61.08,0,0,1,.65,6.85,49.74,49.74,0,0,1-.65,6.86A33.64,33.64,0,0,1,377.47,267a38.66,38.66,0,0,1-7.83,8.49,23.65,23.65,0,0,1-10.12,4.57c-3.59.65-7.18,0-11.1-1.63a20.81,20.81,0,0,1-4.57-2.61,18.78,18.78,0,0,1-3.59-3.59,19.3,19.3,0,0,1-2.94-4.9,27.93,27.93,0,0,1-1.63-5.55,19.17,19.17,0,0,1-.65-6.2,35.63,35.63,0,0,1,.65-5.88Zm13.05,2.28c-.32,1.31-.32,2.29-.65,3.27v3.26a18.51,18.51,0,0,0,1.31,4.57,8.89,8.89,0,0,0,2.61,3.27,7,7,0,0,0,3.91,1.3,8.89,8.89,0,0,0,4.57-1.3,22.47,22.47,0,0,0,5.55-5.55,17.46,17.46,0,0,0,2.94-8.16,15.3,15.3,0,0,0-1-7.84,8.83,8.83,0,0,0-5.55-5.22,10.89,10.89,0,0,0-4.89,1,11.62,11.62,0,0,0-3.92,2.61,20.15,20.15,0,0,0-2.94,3.92A15.43,15.43,0,0,0,349.07,250.68Z"/><path d="M417,243.5v-1.63a5.92,5.92,0,0,0-3.26-3.59,19.09,19.09,0,0,0-4.57-1.31,17,17,0,0,0-2.29,1,5.86,5.86,0,0,0-1.63,1.31l-1.31,1.3a5.66,5.66,0,0,1-1.3,1.64v28.4a6.92,6.92,0,0,1-2,5.22,8.71,8.71,0,0,1-4.57,2.28,5.83,5.83,0,0,1-4.57-1.3c-1.31-1-2-2.61-2.29-4.9,0-5.55-.32-11.75,0-18.93V229.14a5.21,5.21,0,0,1,1.31-3.92,6.82,6.82,0,0,1,3.26-2,8.12,8.12,0,0,1,3.92,0,7.49,7.49,0,0,1,3.27,2.29,19.82,19.82,0,0,1,12.07-2,21.42,21.42,0,0,1,10.78,5.55,54.57,54.57,0,0,1,4.57-3.92,11.82,11.82,0,0,1,5.55-2.28,16.2,16.2,0,0,1,6.85.32,21.15,21.15,0,0,1,6.2,2.61,23.34,23.34,0,0,1,5.23,4.57,15,15,0,0,1,3.26,5.88,16.23,16.23,0,0,1,.65,3.92v29.38a7.32,7.32,0,0,1-.32,2.61,6.33,6.33,0,0,1-2.94,3.91,6.54,6.54,0,0,1-4.25.66,8.88,8.88,0,0,1-3.91-2,7.08,7.08,0,0,1-1.63-4.57v-29a9,9,0,0,0-2.94-3.92c-1.31-.65-2.61-1.31-3.92-1a6.78,6.78,0,0,0-3.59,1.31,7.9,7.9,0,0,0-2.94,3.59v28.4a6.62,6.62,0,0,1-2,4.89,8.31,8.31,0,0,1-4.24,2.61,6.19,6.19,0,0,1-4.24-.32c-1.31-.66-2-2-2.29-3.92Z"/><path d="M466.92,209.88a9.82,9.82,0,0,1,2.61-5.88,7.09,7.09,0,0,1,9.79,0,6.74,6.74,0,0,1,2.28,5.55c0,2.61-.32,4.25-2,5.55a8.6,8.6,0,0,1-4.9,2.29,7.45,7.45,0,0,1-5.22-1.31,7.73,7.73,0,0,1-2.94-5.55Zm14.36,61.37a6.81,6.81,0,0,1-1.63,3.92,9.16,9.16,0,0,1-2.94,2.28,6.51,6.51,0,0,1-3.59.33,6.2,6.2,0,0,1-3.59-2.29,8.09,8.09,0,0,1-1.31-2.28,9,9,0,0,1-.33-2.94v-31a28.77,28.77,0,0,0-.32-5.23,14.17,14.17,0,0,1,.32-5.22,6.82,6.82,0,0,1,2-3.26,7.75,7.75,0,0,1,2.94-2,6.6,6.6,0,0,1,3.59,0,4.16,4.16,0,0,1,2.94,2.28,5.84,5.84,0,0,1,1.63,4.25v41.13Z"/><polygon class="cls-2" points="289.99 363.96 162.03 363.96 194.67 313.36 322.63 313.36 289.99 363.96"/><path d="M238.41,330.33c-.65,1.31-9.46,19.59-11.1,21.87h-.65c-2-2.28-6.53-8.48-7.83-10.12-2.29,2.94-6.53,8.82-8.17,11.1H210c-1.3-2.61-8.49-19.26-10.12-23.17l7.84-2.61c1.3,3.91,3.91,11.75,4.24,13.38.65-1,3.59-5.22,6.86-10.12h.65c3.26,4.57,5.87,7.83,7.18,9.79.65-1.63,3.59-10.44,4.24-12.4Z"/><path d="M258,351.55c-1.31,0-14.37-.33-16.32-.33V327.39c2.28,0,14-.32,15.66-.65v5.88c-1.3,0-6.85.32-7.5.32v3.92a51.9,51.9,0,0,0,6.53-.32v5.54h-6.53v3.6h7.83Z"/><path d="M263.87,335.23v-7.51a104.52,104.52,0,0,1,11.43.33c7.51,1,8.49,3.59,8.49,5.55,0,1.3-1,3.59-4.9,4.89v.33c2.94.33,5.88,2,5.88,5.22,0,3.92-4.9,7.51-17.31,7.51h-3.91V335.23Zm7.84,2.28c1.3,0,3.92-1,3.92-3.59,0-2.28-2.62-2.61-3.92-2.28Zm0,9.47c2.28,0,4.57-1.3,4.57-3.26,0-2.29-2-3.27-4.57-2.94Z"/><path class="cls-1" d="M238.41,330.33c-.65,1.31-9.46,19.59-11.1,21.87h-.65c-2-2.28-6.53-8.48-7.83-10.12-2.29,2.94-6.53,8.82-8.17,11.1H210c-1.3-2.61-8.49-19.26-10.12-23.17l7.84-2.61c1.3,3.91,3.91,11.75,4.24,13.38.65-1,3.59-5.22,6.86-10.12h.65c3.26,4.57,5.87,7.83,7.18,9.79.65-1.63,3.59-10.44,4.24-12.4Z"/><path class="cls-1" d="M238.41,330.33c-.65,1.31-9.46,19.59-11.1,21.87h-.65c-2-2.28-6.53-8.48-7.83-10.12-2.29,2.94-6.53,8.82-8.17,11.1H210c-1.3-2.61-8.49-19.26-10.12-23.17l7.84-2.61c1.3,3.91,3.91,11.75,4.24,13.38.65-1,3.59-5.22,6.86-10.12h.65c3.26,4.57,5.87,7.83,7.18,9.79.65-1.63,3.59-10.44,4.24-12.4Z"/><path class="cls-1" d="M258,351.55c-1.31,0-14.37-.33-16.32-.33V327.39c2.28,0,14-.32,15.66-.65v5.88c-1.3,0-6.85.32-7.5.32v3.92a51.9,51.9,0,0,0,6.53-.32v5.54h-6.53v3.6h7.83Z"/><path class="cls-1" d="M258,351.55c-1.31,0-14.37-.33-16.32-.33V327.39c2.28,0,14-.32,15.66-.65v5.88c-1.3,0-6.85.32-7.5.32v3.92a51.9,51.9,0,0,0,6.53-.32v5.54h-6.53v3.6h7.83Z"/><path class="cls-1" d="M263.87,335.23v-7.51a104.52,104.52,0,0,1,11.43.33c7.51,1,8.49,3.59,8.49,5.55,0,1.3-1,3.59-4.9,4.89v.33c2.94.33,5.88,2,5.88,5.22,0,3.92-4.9,7.51-17.31,7.51h-3.91V335.23Zm7.84,2.28c1.3,0,3.92-1,3.92-3.59,0-2.28-2.62-2.61-3.92-2.28Zm0,9.47c2.28,0,4.57-1.3,4.57-3.26,0-2.29-2-3.27-4.57-2.94Z"/><path class="cls-1" d="M263.87,335.23v-7.51a104.52,104.52,0,0,1,11.43.33c7.51,1,8.49,3.59,8.49,5.55,0,1.3-1,3.59-4.9,4.89v.33c2.94.33,5.88,2,5.88,5.22,0,3.92-4.9,7.51-17.31,7.51h-3.91V335.23Zm7.84,2.28c1.3,0,3.92-1,3.92-3.59,0-2.28-2.62-2.61-3.92-2.28Zm0,9.47c2.28,0,4.57-1.3,4.57-3.26,0-2.29-2-3.27-4.57-2.94Z"/></svg>