<?xml version="1.0" encoding="utf-8"?>
<!-- Generator: Adobe Illustrator 25.3.1, SVG Export Plug-In . SVG Version: 6.00 Build 0)  -->
<svg version="1.1" id="レイヤー_1" xmlns="http://www.w3.org/2000/svg" xmlns:xlink="http://www.w3.org/1999/xlink" x="0px"
	 y="0px" viewBox="0 0 144.5 50.1" style="enable-background:new 0 0 144.5 50.1;" xml:space="preserve">
<style type="text/css">
	.st0{font-family:'ChalkboardSE-Bold';}
	.st1{font-size:30px;}
	.st2{fill:#E5446D;}
	.st3{fill:#FFFFFF;}
</style>
<text transform="matrix(1 0 0 1 0 22.6583)" class="st0 st1">Chocoyomi</text>
<polygon class="st2" points="84.1,50.1 44.9,50.1 54.9,34.6 94.1,34.6 "/>
<g>
	<g>
		<path d="M68.3,39.8c-0.2,0.4-2.9,6-3.4,6.7h-0.2c-0.6-0.7-2-2.6-2.4-3.1c-0.7,0.9-2,2.7-2.5,3.4h-0.2c-0.4-0.8-2.6-5.9-3.1-7.1
			l2.4-0.8c0.4,1.2,1.2,3.6,1.3,4.1c0.2-0.3,1.1-1.6,2.1-3.1h0.2c1,1.4,1.8,2.4,2.2,3c0.2-0.5,1.1-3.2,1.3-3.8L68.3,39.8z"/>
		<path d="M74.3,46.3c-0.4,0-4.4-0.1-5-0.1c0-0.5,0-2.7,0-3v-1.4c0-0.2,0-2.6,0-2.9c0.7,0,4.3-0.1,4.8-0.2l0,1.8
			c-0.4,0-2.1,0.1-2.3,0.1v1.2c0.2,0,1.5,0,2-0.1l0,1.7c-0.3,0-1.7,0-2,0v1.1c0.3,0,1.9,0,2.4,0L74.3,46.3z"/>
		<path d="M76.1,41.3c0-0.3,0-2.1,0-2.3c1.7,0,2.6,0,3.5,0.1c2.3,0.3,2.6,1.1,2.6,1.7c0,0.4-0.3,1.1-1.5,1.5v0.1
			c0.9,0.1,1.8,0.6,1.8,1.6c0,1.2-1.5,2.3-5.3,2.3H76c0-0.6,0-3.6,0-3.8V41.3z M78.5,42c0.4,0,1.2-0.3,1.2-1.1
			c0-0.7-0.8-0.8-1.2-0.7V42z M78.5,44.9c0.7,0,1.4-0.4,1.4-1c0-0.7-0.6-1-1.4-0.9V44.9z"/>
	</g>
	<g>
		<path class="st3" d="M68.3,39.8c-0.2,0.4-2.9,6-3.4,6.7h-0.2c-0.6-0.7-2-2.6-2.4-3.1c-0.7,0.9-2,2.7-2.5,3.4h-0.2
			c-0.4-0.8-2.6-5.9-3.1-7.1l2.4-0.8c0.4,1.2,1.2,3.6,1.3,4.1c0.2-0.3,1.1-1.6,2.1-3.1h0.2c1,1.4,1.8,2.4,2.2,3
			c0.2-0.5,1.1-3.2,1.3-3.8L68.3,39.8z"/>
		<path class="st3" d="M74.3,46.3c-0.4,0-4.4-0.1-5-0.1c0-0.5,0-2.7,0-3v-1.4c0-0.2,0-2.6,0-2.9c0.7,0,4.3-0.1,4.8-0.2l0,1.8
			c-0.4,0-2.1,0.1-2.3,0.1v1.2c0.2,0,1.5,0,2-0.1l0,1.7c-0.3,0-1.7,0-2,0v1.1c0.3,0,1.9,0,2.4,0L74.3,46.3z"/>
		<path class="st3" d="M76.1,41.3c0-0.3,0-2.1,0-2.3c1.7,0,2.6,0,3.5,0.1c2.3,0.3,2.6,1.1,2.6,1.7c0,0.4-0.3,1.1-1.5,1.5v0.1
			c0.9,0.1,1.8,0.6,1.8,1.6c0,1.2-1.5,2.3-5.3,2.3H76c0-0.6,0-3.6,0-3.8V41.3z M78.5,42c0.4,0,1.2-0.3,1.2-1.1
			c0-0.7-0.8-0.8-1.2-0.7V42z M78.5,44.9c0.7,0,1.4-0.4,1.4-1c0-0.7-0.6-1-1.4-0.9V44.9z"/>
	</g>
</g>
</svg>
