<svg id="レイヤー_1" data-name="レイヤー 1" xmlns="http://www.w3.org/2000/svg" viewBox="0 0 500 162"><defs><style>.cls-1{fill:#e5446d;}.cls-2{fill:#fff;}</style></defs><path d="M60.51,53.25c23.48-9,5.94,25.49-15,23.18-30.18-2-35.28-44.85-13.06-61,9.31-5.46,19.93-12.83,31-9.47,6.36,2.43,13.88,12.47,6.86,18C62.9,29,62.05,18.22,56.59,18,13.48,26.49,36.35,88.33,60.51,53.25Z"/><path d="M91.19,74.47c-19,13.29-7.48-60.17-10.45-65.29.13-5.06,6.76-8.12,11.1-5.87,4.67,7,1.28,18.17,2.29,26.44,17.08-12.44,35.11,5.06,32.31,23.83-1.12,7.14,3.31,18.47-4.24,22.52-20,2.32-1.15-29.92-14.69-36.88-6.59-1.07-10.26,5.33-14,9.46C92.65,52.55,95.74,72.55,91.19,74.47Z"/><path d="M133.63,46.4c6.67-34.72,54.07-27.65,45.7,8.49C171.59,89.48,125.3,83,133.63,46.4Zm12.73,2.28c-5,28,27.5,12,19.26-7.18C160.53,30.16,147.88,40,146.36,48.68Z"/><path d="M216.21,58.8c9.85-6.64,14.89,7.51,5.88,12.41-20.84,14.78-43-10.57-33.62-31.34,3.1-8.6,9.28-16.66,18.6-18.61,8.23-1.17,24.76,3.34,22.2,14.37-4.88,8.36-11.06.58-17-1C194.11,33.27,196.1,74.85,216.21,58.8Z"/><path d="M232.54,46.4c6.66-34.69,54-27.71,45.7,8.49C270.5,89.48,224.21,83,232.54,46.4Zm12.73,2.28c-5.05,27.94,27.52,12.13,19.26-7.18C259.44,30.16,246.79,40,245.27,48.68Z"/><path d="M321.65,24.53C355.1,5,307.08,88.6,301.74,95c-4.42,5.2-12.05.8-10.77-5.55,3.43-9.14,10.17-17.23,14.36-26.12-10.27-9.49-23.5-24-21.22-38.52,2.2-4.26,7.78-4.08,10.45-.65,3.62,10.1,7.47,20.66,16.32,27.42C315.35,42.84,317.83,33.42,321.65,24.53Z"/><path d="M336,46.4c6.66-34.69,54-27.71,45.7,8.49C374,89.48,327.69,83,336,46.4Zm13.05,2.28c-5,27.94,27.52,12.13,19.26-7.18C363.48,30.2,350.2,40,349.07,48.68Z"/><path d="M417,41.5c-.28-8-11.35-7.8-14.36-1.3-1.68,7,6.25,43.47-11.1,34.6-4.63-6.2-1.64-15-2.29-23.83.9-7.78-1.91-19.25,1.31-27.75a7,7,0,0,1,10.45.33c7.94-4,16.39-2.41,22.85,3.59,9.73-12.85,31.6-4.2,32.31,11.1-.12,1,.37,32.24-.32,32-1.9,7.42-13,5.29-12.73-2-1.7-5.2,5.1-36-6.86-33.95-13.86,1-1.61,31.84-8.49,38.19C410.83,87.14,418.64,47.16,417,41.5Z"/><path d="M466.92,7.88c.27-10,14.79-10.26,14.69-.33C482.8,17.66,465.43,17.91,466.92,7.88Zm14.36,61.37c-.29,5.47-8,9.35-11.75,4.24-3.65-7-.76-15.84-1.64-23.5.49-8.08-4.22-37.36,11.43-26.12,4.22,14,.38,30.58,1.63,45.38Z"/><polygon class="cls-1" points="289.99 161.96 162.03 161.96 194.67 111.36 322.63 111.36 289.99 161.96"/><path d="M238.41,128.33c-.65,1.31-9.46,19.59-11.1,21.87-2.69-1.07-6.85-8.68-8.48-10.12-2.71,2.81-6.28,9.92-8.82,11.1-1.3-2.61-8.49-19.26-10.12-23.17l7.84-2.61c1.3,3.91,3.91,11.75,4.24,13.38,7.74-11,5.63-13.61,14.69-.33.65-1.63,3.59-10.44,4.24-12.4Z"/><path d="M258,149.55c-1.31,0-14.37-.33-16.32-.33V125.39c2.28,0,14-.32,15.66-.65v5.88c-1.3,0-6.85.32-7.5.32v3.92a51.9,51.9,0,0,0,6.53-.32v5.54h-6.53v3.6h7.83Z"/><path d="M263.87,133.23v-7.51c10.38-1.29,29,2.87,15,11.1,15.35,5.12-1.23,14.92-15.34,12.73V133.23Zm7.84,2.28c4.39.34,5.65-7.09,0-5.87Zm0,9.47c5.73.32,6.14-7.23,0-6.2Z"/><path class="cls-2" d="M238.41,128.33c-.65,1.31-9.46,19.59-11.1,21.87-2.69-1.07-6.85-8.68-8.48-10.12-2.71,2.81-6.28,9.92-8.82,11.1-1.3-2.61-8.49-19.26-10.12-23.17l7.84-2.61c1.3,3.91,3.91,11.75,4.24,13.38,7.74-11,5.63-13.61,14.69-.33.65-1.63,3.59-10.44,4.24-12.4Z"/><path class="cls-2" d="M238.41,128.33c-.65,1.31-9.46,19.59-11.1,21.87-2.69-1.07-6.85-8.68-8.48-10.12-2.71,2.81-6.28,9.92-8.82,11.1-1.3-2.61-8.49-19.26-10.12-23.17l7.84-2.61c1.3,3.91,3.91,11.75,4.24,13.38,7.74-11,5.63-13.61,14.69-.33.65-1.63,3.59-10.44,4.24-12.4Z"/><path class="cls-2" d="M258,149.55c-1.31,0-14.37-.33-16.32-.33V125.39c2.28,0,14-.32,15.66-.65v5.88c-1.3,0-6.85.32-7.5.32v3.92a51.9,51.9,0,0,0,6.53-.32v5.54h-6.53v3.6h7.83Z"/><path class="cls-2" d="M258,149.55c-1.31,0-14.37-.33-16.32-.33V125.39c2.28,0,14-.32,15.66-.65v5.88c-1.3,0-6.85.32-7.5.32v3.92a51.9,51.9,0,0,0,6.53-.32v5.54h-6.53v3.6h7.83Z"/><path class="cls-2" d="M263.87,133.23v-7.51c10.38-1.29,29,2.87,15,11.1,15.35,5.12-1.23,14.92-15.34,12.73V133.23Zm7.84,2.28c4.39.34,5.65-7.09,0-5.87Zm0,9.47c5.73.32,6.14-7.23,0-6.2Z"/><path class="cls-2" d="M263.87,133.23v-7.51c10.38-1.29,29,2.87,15,11.1,15.35,5.12-1.23,14.92-15.34,12.73V133.23Zm7.84,2.28c4.39.34,5.65-7.09,0-5.87Zm0,9.47c5.73.32,6.14-7.23,0-6.2Z"/></svg>