<svg id="レイヤー_1" data-name="レイヤー 1" xmlns="http://www.w3.org/2000/svg" viewBox="0 0 203 90"><defs><style>.cls-1{stroke:#000;stroke-miterlimit:10;}</style></defs><path d="M43.2,17.12a5.87,5.87,0,0,0-2-2.81,4.88,4.88,0,0,0-3.2-.88,5.73,5.73,0,0,0-3.2,1.2,8.3,8.3,0,0,0-2.21,3.13,14.17,14.17,0,0,0-1,5.37,19.84,19.84,0,0,0,.17,3.15A12.69,12.69,0,0,0,32.41,29,5.75,5.75,0,0,0,35,32.41a5,5,0,0,0,3.08.71,7.59,7.59,0,0,0,1.24-.23,8.2,8.2,0,0,0,1.09-.39,3.6,3.6,0,0,0,.93-.64,4.66,4.66,0,0,0,.83-1.07,7.67,7.67,0,0,0,1.09-3.1c.19-.54.44-.8.74-.78s.45.46.35,1.26a9.14,9.14,0,0,1-.83,2.94,6.48,6.48,0,0,1-1.86,2.2,5.86,5.86,0,0,1-3.36,1.26,6.84,6.84,0,0,1-4-.81c-1.26-.62-2.26-2-3-4a13.72,13.72,0,0,1-.84-3.19A20.72,20.72,0,0,1,30.3,23a16.9,16.9,0,0,1,1.18-6,8.68,8.68,0,0,1,2.6-3.59A6.89,6.89,0,0,1,37.82,12a5.57,5.57,0,0,1,3.84,1,7.54,7.54,0,0,1,2.56,3.52c.11.74,0,1.17-.26,1.3S43.43,17.72,43.2,17.12Z"/><path d="M49.66,25.1a27.91,27.91,0,0,0,.1,8.76c0,.71-.23,1.08-.61,1.1s-.66-.22-.83-.78c-.26-2.86-.42-6.08-.48-9.64s0-7.49.12-11.75c0-.67.23-1,.74-.94s.69.42.67,1.07c0,1.61,0,3.15.05,4.62s0,2.85,0,4.17a4.82,4.82,0,0,1,3.49-2,5,5,0,0,1,3.59.74,7.64,7.64,0,0,1,1.21,1.11,4.59,4.59,0,0,1,.8,1.35,9.37,9.37,0,0,1,.8,3.16,27,27,0,0,1,.1,3.53c0,.6,0,1.29-.08,2.06s-.09,1.63-.18,2.56c-.13.6-.38.9-.77.9s-.6-.32-.67-1c.07-.94.12-1.8.16-2.57s.08-1.43.1-2,0-1.14,0-1.69,0-1.06-.08-1.54a8.71,8.71,0,0,0-.22-1.4,7.64,7.64,0,0,0-.42-1.25,5,5,0,0,0-.59-1.08,3.25,3.25,0,0,0-.78-.79,2.29,2.29,0,0,0-.95-.5,3.89,3.89,0,0,0-1.07-.15,10.29,10.29,0,0,0-1.05.11,5,5,0,0,0-.9.25,3.13,3.13,0,0,0-1.34,1A7,7,0,0,0,49.66,25.1Z"/><path d="M70.2,19.87A4.74,4.74,0,0,1,73.53,21a6.61,6.61,0,0,1,2.21,3.49,9.54,9.54,0,0,1,.13,4.91,7.72,7.72,0,0,1-2.5,4.37,5.58,5.58,0,0,1-4.45,1.39,6.38,6.38,0,0,1-4.06-1.85,7.3,7.3,0,0,1-1.89-4,9.66,9.66,0,0,1,.39-4.91A6.35,6.35,0,0,1,66,20.8,6.23,6.23,0,0,1,70.2,19.87Zm.42,1.26a6.07,6.07,0,0,0-3.94.84,5.15,5.15,0,0,0-2.11,3,8.53,8.53,0,0,0-.35,4,7.7,7.7,0,0,0,.51,1.81,5.28,5.28,0,0,0,1,1.46,4.73,4.73,0,0,0,3.23,1.45,5,5,0,0,0,3.75-1.19,6,6,0,0,0,2-3.56,8.3,8.3,0,0,0-.19-4.13,5,5,0,0,0-1.66-2.69,8.13,8.13,0,0,0-1-.64A3.86,3.86,0,0,0,70.62,21.13Z"/><path d="M90.24,24.26a4.88,4.88,0,0,0-3-2.46,5.45,5.45,0,0,0-4.07.46,4.86,4.86,0,0,0-2.52,3.88,7.11,7.11,0,0,0,.92,5.17,4.43,4.43,0,0,0,4.23,2.19,5.07,5.07,0,0,0,4.09-1.74,1,1,0,0,1,1.06-.16c.26.19.21.6-.13,1.23a6.4,6.4,0,0,1-7.55,1.9,6.46,6.46,0,0,1-1.39-.85,8.05,8.05,0,0,1-1.14-1.12,6.57,6.57,0,0,1-1.47-3.26,10,10,0,0,1,.19-4.59,5.86,5.86,0,0,1,3-4,6.24,6.24,0,0,1,5.09-.61,6.5,6.5,0,0,1,3.93,3.2c.13.71.09,1.14-.13,1.29S90.71,24.76,90.24,24.26Z"/><path d="M102.2,19.87A4.74,4.74,0,0,1,105.53,21a6.61,6.61,0,0,1,2.21,3.49,9.54,9.54,0,0,1,.13,4.91,7.72,7.72,0,0,1-2.5,4.37,5.58,5.58,0,0,1-4.45,1.39,6.38,6.38,0,0,1-4.06-1.85,7.3,7.3,0,0,1-1.89-4,9.66,9.66,0,0,1,.39-4.91A6.35,6.35,0,0,1,98,20.8,6.23,6.23,0,0,1,102.2,19.87Zm.42,1.26a6.07,6.07,0,0,0-3.94.84,5.15,5.15,0,0,0-2.11,3,8.53,8.53,0,0,0-.35,4,7.7,7.7,0,0,0,.51,1.81,5.28,5.28,0,0,0,1,1.46,4.73,4.73,0,0,0,3.23,1.45,5,5,0,0,0,3.75-1.19,6,6,0,0,0,2-3.56,8.3,8.3,0,0,0-.19-4.13,5,5,0,0,0-1.66-2.69,8.13,8.13,0,0,0-1-.64A3.86,3.86,0,0,0,102.62,21.13Z"/><path d="M123.42,22.45A41.38,41.38,0,0,1,122,27.28a31.13,31.13,0,0,1-2,4.29,37,37,0,0,1-6.08,7.82c-.54.36-.92.41-1.16.13s-.24-.68.1-1.2a20.52,20.52,0,0,0,4.64-5.69,8.29,8.29,0,0,1-4.13-3.91,16.1,16.1,0,0,1-1.15-3,20.07,20.07,0,0,1-.61-3.58c0-.63.16-1,.55-1.14s.64.11.7.65a15.44,15.44,0,0,0,1.57,6.24,8,8,0,0,0,3.84,3.62,20.21,20.21,0,0,0,2.14-4.24A36.53,36.53,0,0,0,122,21.64q.34-.7.93-.45A1.3,1.3,0,0,1,123.42,22.45Z"/><path d="M134.2,19.87A4.74,4.74,0,0,1,137.53,21a6.61,6.61,0,0,1,2.21,3.49,9.54,9.54,0,0,1,.13,4.91,7.72,7.72,0,0,1-2.5,4.37,5.58,5.58,0,0,1-4.45,1.39,6.38,6.38,0,0,1-4.06-1.85,7.3,7.3,0,0,1-1.89-4,9.66,9.66,0,0,1,.39-4.91A6.35,6.35,0,0,1,130,20.8,6.23,6.23,0,0,1,134.2,19.87Zm.42,1.26a6.07,6.07,0,0,0-3.94.84,5.15,5.15,0,0,0-2.11,3,8.53,8.53,0,0,0-.35,4,7.7,7.7,0,0,0,.51,1.81,5.28,5.28,0,0,0,1,1.46,4.73,4.73,0,0,0,3.23,1.45,5,5,0,0,0,3.75-1.19,6,6,0,0,0,2-3.56,8.3,8.3,0,0,0-.19-4.13,5,5,0,0,0-1.66-2.69,8.13,8.13,0,0,0-1-.64A3.86,3.86,0,0,0,134.62,21.13Z"/><path d="M144.06,24.1a5.16,5.16,0,0,1,1.09-2.46,2.63,2.63,0,0,1,1.92-.74,2.19,2.19,0,0,1,1,.27,2.51,2.51,0,0,1,.76.7,8.22,8.22,0,0,1,.92,2.91,12,12,0,0,1,.42-1.62,4.19,4.19,0,0,1,.67-1.26,2.51,2.51,0,0,1,2.47-.9c1.13.13,2,1,2.56,2.49s.81,5.26.57,11.15a.67.67,0,0,1-.7.77c-.49,0-.72-.38-.67-1.13q.35-6.66-.39-9.11c-.49-1.71-1.08-2.57-1.76-2.59s-1.25.6-1.69,1.94a16.55,16.55,0,0,0-.6,3.55q-.24,2.57-.3,6.66c-.51.89-1,.82-1.41-.19,0-2.44-.06-4.45-.13-6.05a33.27,33.27,0,0,0-.28-3.55c-.26-1.57-.77-2.37-1.54-2.39s-1.42.85-1.89,2.55a21.94,21.94,0,0,0-.83,5.27c0,.9-.07,1.72-.1,2.44s0,1.34,0,1.86c-.47.92-.94,1-1.41.22l-.06-14.64c0-.73.29-1.1.74-1.1s.67.31.67.84Z"/><path d="M166.33,16.79a1.85,1.85,0,0,1-2.24,0,2.33,2.33,0,0,1-1.12-2,2,2,0,0,1,1-1.84,2.15,2.15,0,0,1,2.08-.16,2.08,2.08,0,0,1,1.31,1.81A2.18,2.18,0,0,1,166.33,16.79Zm-.54,17.72c-.15.71-.48,1-1,1s-.75-.38-.64-1L164,20.71c0-.72.29-1.06.8-1s.81.38.83,1Z"/><path d="M40,45.5c0,.37-.27,1.94-.71,4.72s-1.07,6.77-1.89,12c-.33.57-.62.78-.88.63a1.41,1.41,0,0,1-.57-1.15c0-.3-.22-1.6-.56-3.91s-.82-5.63-1.44-10q-1.83,14-2.19,14.92c-.55.46-1,.31-1.3-.42l-2.21-16.6c0-.5.1-.79.44-.86s.59.12.68.52l1.85,13.82q1.95-14.11,2.36-14.29a.76.76,0,0,1,.81.05q.39.24,2.42,13.95l2.08-13.61c.08-.43.3-.64.65-.63S40,45,40,45.5Z"/><path d="M43,57.77a7,7,0,0,0,.4,1.53,3.81,3.81,0,0,0,.72,1.15,3.89,3.89,0,0,0,1.07.78,6.35,6.35,0,0,0,1.53.55,7.12,7.12,0,0,0,3.85-.23c.47-.11.73,0,.8.29s-.12.6-.57.81a7.94,7.94,0,0,1-4,.39,5.61,5.61,0,0,1-3.3-1.6,5.52,5.52,0,0,1-1.48-3.67,9.93,9.93,0,0,1,0-2.12A7.77,7.77,0,0,1,42.47,54a6.89,6.89,0,0,1,.65-1.21,4.87,4.87,0,0,1,.83-.92,5.51,5.51,0,0,1,2-1.07,5.84,5.84,0,0,1,1.1-.16,6.11,6.11,0,0,1,1.06,0,4.57,4.57,0,0,1,1.92.73,4,4,0,0,1,.83.62,4.16,4.16,0,0,1,.63.77,8.6,8.6,0,0,1,.75,2.05,5.34,5.34,0,0,1,.08,2c-.1.54-.36.84-.75.89Zm8.19-1.08a4.62,4.62,0,0,0-.67-3.31,3.62,3.62,0,0,0-2.32-1.55A4.8,4.8,0,0,0,45.8,52a3.5,3.5,0,0,0-1,.61,3.83,3.83,0,0,0-.84,1,5.14,5.14,0,0,0-.73,3Z"/><path d="M56.35,45.21c-.05,5-.07,7.86-.07,8.59a4,4,0,0,1,2.34-1.36,6.75,6.75,0,0,1,3.48.07,4.3,4.3,0,0,1,2.6,2,7.29,7.29,0,0,1,.6,1.4,4.92,4.92,0,0,1,.21,1.41A6.79,6.79,0,0,1,65,60a5.18,5.18,0,0,1-1.48,2,5.94,5.94,0,0,1-3,.92,4.87,4.87,0,0,1-3.32-.71,5.06,5.06,0,0,1-1.07-1,4.59,4.59,0,0,1-.65-1.06,8.11,8.11,0,0,1-.33-1.22A8.58,8.58,0,0,1,55,57.56c0-.49,0-1.78,0-3.85s.06-5,.09-8.63c.11-.52.34-.78.7-.76S56.35,44.64,56.35,45.21Zm2.34,16.34a4.25,4.25,0,0,0,2.4.18,9.36,9.36,0,0,0,1-.31,4.24,4.24,0,0,0,.89-.48,3.81,3.81,0,0,0,1.25-2.41,4.25,4.25,0,0,0-.42-3.21,4.13,4.13,0,0,0-2.24-1.75,4.49,4.49,0,0,0-3,.21,4,4,0,0,0-1.32.73,2.6,2.6,0,0,0-.71,1,7.51,7.51,0,0,0-.27,1.22,5.87,5.87,0,0,0,0,1.33,4.24,4.24,0,0,0,.65,2.23,2.86,2.86,0,0,0,.74.73A4.17,4.17,0,0,0,58.69,61.55Z"/><path d="M78.22,61.18c0,1-.2,1.51-.55,1.47s-.54-.27-.54-.81c-.07-2.65-.09-5.14,0-7.47s.12-4.52.25-6.56Q74,58.64,73.67,59c-.23.25-.43.28-.6.11S71.51,55.23,69,48q.15,2.63.19,6.1c0,2.32,0,4.94-.06,7.87,0,.59-.2.89-.55.89s-.49-.27-.55-.81q.11-8.91-.07-12.87a36.61,36.61,0,0,1-.08-4.52c.08-.36.22-.51.41-.44s.48.36.76.84L73.33,56.4Q75,51.26,76,48.26c.67-2,1.13-3.27,1.37-3.83.63-.27,1-.12,1.1.44q-.21,4.82-.29,8.88T78.22,61.18Z"/><path d="M80.92,51.12a3.91,3.91,0,0,1,2-1.55,5.69,5.69,0,0,1,2.6-.07,4,4,0,0,1,2.19,1.23,5.78,5.78,0,0,1,.74,1.06,4,4,0,0,1,.4,1.22A6.35,6.35,0,0,1,89,54.5a13.22,13.22,0,0,1-.18,1.85c-.12.68-.24,1.29-.35,1.81s-.21,1-.3,1.34A2.8,2.8,0,0,0,89.3,61a2.66,2.66,0,0,0,1.5.39c.51,0,.75.18.73.58s-.36.65-1,.65a2.91,2.91,0,0,1-1.77-.6,3.92,3.92,0,0,1-1.11-1.1,3.19,3.19,0,0,1-1.67,1.63,5,5,0,0,1-2.47.26,4,4,0,0,1-1.18-.37,2.35,2.35,0,0,1-.9-.76A4.1,4.1,0,0,1,80.64,59a4.4,4.4,0,0,1,1-3,2.89,2.89,0,0,1,2.6-1.13,3,3,0,0,1,3.17,2.65,15.6,15.6,0,0,0,.26-4.23,4,4,0,0,0-.88-1.7,2.92,2.92,0,0,0-1.59-1,3.78,3.78,0,0,0-1.92.08,2.77,2.77,0,0,0-1.56,1.18c-.42.26-.72.31-.89.13S80.7,51.54,80.92,51.12Zm5.67,6.94a5.45,5.45,0,0,0-.91-1.45,2.28,2.28,0,0,0-1.4-.52,1.88,1.88,0,0,0-1.56.42,2.77,2.77,0,0,0-.46.53,3.67,3.67,0,0,0-.27.57,2.89,2.89,0,0,0-.14.7c0,.25,0,.53-.07.85a2.56,2.56,0,0,0,.52,1.63,2,2,0,0,0,1.43.86,3,3,0,0,0,1.64-.18,2.52,2.52,0,0,0,1.12-1.18A4.22,4.22,0,0,0,86.59,58.06Z"/><path d="M102.48,52.3c0-.49.21-.75.47-.78s.45.21.52.68c.08,1.84.11,3.54.07,5.12s-.13,3-.28,4.39c-.33,2.67-1.35,4.26-3.07,4.75a4.18,4.18,0,0,1-4.45-1.29c-.33-.42-.39-.75-.18-1s.5-.19.86.16a3.14,3.14,0,0,0,3.54,1q2-.64,2.21-4.83a4.39,4.39,0,0,1-1.77,1.05,5.43,5.43,0,0,1-2.21.13,3.9,3.9,0,0,1-2.34-1.23,5.22,5.22,0,0,1-1.35-3.05,6.05,6.05,0,0,1,.57-3.59,4.16,4.16,0,0,1,2.18-2.29,5.07,5.07,0,0,1,2.71-.42A5,5,0,0,1,102.48,52.3ZM101.93,54a3.7,3.7,0,0,0-1.3-1.55,4.6,4.6,0,0,0-1.43-.31,3.37,3.37,0,0,0-1.64.47,3.52,3.52,0,0,0-1.45,1.76,4.82,4.82,0,0,0-.44,2.78,3.82,3.82,0,0,0,1,2.29,3,3,0,0,0,1.9,1,3.46,3.46,0,0,0,2-.29A2.74,2.74,0,0,0,101.83,59a6.5,6.5,0,0,0,.49-2.23A6.1,6.1,0,0,0,101.93,54Z"/><path d="M106.92,51.12a3.91,3.91,0,0,1,2-1.55,5.69,5.69,0,0,1,2.6-.07,4,4,0,0,1,2.19,1.23,5.78,5.78,0,0,1,.74,1.06,4,4,0,0,1,.4,1.22,6.35,6.35,0,0,1,.1,1.49,13.22,13.22,0,0,1-.18,1.85c-.12.68-.24,1.29-.35,1.81s-.21,1-.3,1.34A2.8,2.8,0,0,0,115.3,61a2.66,2.66,0,0,0,1.5.39c.51,0,.75.18.73.58s-.36.65-1,.65a2.91,2.91,0,0,1-1.77-.6,3.92,3.92,0,0,1-1.11-1.1,3.19,3.19,0,0,1-1.67,1.63,5,5,0,0,1-2.47.26,4,4,0,0,1-1.18-.37,2.35,2.35,0,0,1-.9-.76,4.1,4.1,0,0,1-.75-2.65,4.4,4.4,0,0,1,1-3,2.89,2.89,0,0,1,2.6-1.13,3,3,0,0,1,3.17,2.65,15.6,15.6,0,0,0,.26-4.23,4,4,0,0,0-.88-1.7,2.92,2.92,0,0,0-1.59-1,3.78,3.78,0,0,0-1.92.08,2.77,2.77,0,0,0-1.56,1.18c-.42.26-.72.31-.89.13S106.7,51.54,106.92,51.12Zm5.67,6.94a5.45,5.45,0,0,0-.91-1.45,2.28,2.28,0,0,0-1.4-.52,1.88,1.88,0,0,0-1.56.42,2.77,2.77,0,0,0-.46.53,3.67,3.67,0,0,0-.27.57,2.89,2.89,0,0,0-.14.7c0,.25,0,.53-.07.85a2.56,2.56,0,0,0,.52,1.63,2,2,0,0,0,1.43.86,3,3,0,0,0,1.64-.18,2.52,2.52,0,0,0,1.12-1.18A4.22,4.22,0,0,0,112.59,58.06Z"/><path d="M129.86,50.81c.53.16.7.59.49,1.31L123,61.52l6.57,0c.42.07.63.29.63.65s-.21.59-.63.66l-7.9,0c-.42-.12-.55-.49-.39-1.12l7.54-9.56-8.48,0c-.46-.05-.67-.26-.62-.63a.76.76,0,0,1,.62-.68Z"/><path d="M138.8,48.13a1.5,1.5,0,0,1-1.82,0,1.87,1.87,0,0,1-.91-1.63,1.62,1.62,0,0,1,.78-1.5,1.74,1.74,0,0,1,1.69-.13,1.72,1.72,0,0,1,1.07,1.47A1.82,1.82,0,0,1,138.8,48.13Zm-.44,14.39q-.18.87-.81.81c-.43,0-.61-.3-.52-.81l-.1-11.21c0-.58.23-.86.65-.84s.66.3.67.81Z"/><path d="M146.91,50.91c.05-.54.21-.82.47-.84s.45.27.52.79v3.62a5.81,5.81,0,0,1,1.27-2.65,3.56,3.56,0,0,1,2.53-1.07A2.92,2.92,0,0,1,154.43,52a5.56,5.56,0,0,1,.85,1.65,10.51,10.51,0,0,1,.47,2.34,27.36,27.36,0,0,1,.11,3c0,1.13-.09,2.36-.21,3.71-.14.45-.38.64-.73.58a.7.7,0,0,1-.47-.79q.18-1.95.21-3.51a26.42,26.42,0,0,0-.08-2.77,6.49,6.49,0,0,0-1-3.36,2.24,2.24,0,0,0-2-.84,2.86,2.86,0,0,0-2.06,1.55,8,8,0,0,0-.7,1.57,9,9,0,0,0-.39,1.9c0,.68-.1,1.32-.13,1.93s0,1.16,0,1.66a12.28,12.28,0,0,1,0,1.37q0,.6-.09,1c-.57.44-.95.33-1.14-.34Z"/><path d="M160,57.77a7,7,0,0,0,.4,1.53,3.81,3.81,0,0,0,.72,1.15,3.89,3.89,0,0,0,1.07.78,6.35,6.35,0,0,0,1.53.55,7.12,7.12,0,0,0,3.85-.23c.47-.11.73,0,.8.29s-.12.6-.57.81a7.94,7.94,0,0,1-4,.39,5.61,5.61,0,0,1-3.3-1.6,5.52,5.52,0,0,1-1.48-3.67,9.93,9.93,0,0,1,0-2.12,7.77,7.77,0,0,1,.38-1.64,6.89,6.89,0,0,1,.65-1.21,4.87,4.87,0,0,1,.83-.92,5.51,5.51,0,0,1,2-1.07,5.84,5.84,0,0,1,1.1-.16,6.11,6.11,0,0,1,1.06,0,4.57,4.57,0,0,1,1.92.73,4,4,0,0,1,.83.62,4.16,4.16,0,0,1,.63.77,8.6,8.6,0,0,1,.75,2.05,5.34,5.34,0,0,1,.08,2c-.1.54-.36.84-.75.89Zm8.19-1.08a4.62,4.62,0,0,0-.67-3.31,3.62,3.62,0,0,0-2.32-1.55,4.8,4.8,0,0,0-2.44.19,3.5,3.5,0,0,0-1,.61,3.83,3.83,0,0,0-.84,1,5.14,5.14,0,0,0-.73,3Z"/><line class="cls-1" x1="29.97" y1="75.6" x2="171.17" y2="75.6"/></svg>